<svg id="line" viewBox="0 0 64 64" xmlns="http://www.w3.org/2000/svg"><path d="m46.573 35.13876h-8.39966a.99963.99963 0 0 0 -.99994.99994v7.17224a.99967.99967 0 0 0 .99994.99994h12.88266a.99971.99971 0 0 0 .99994-.99994v-2.68921a5.48935 5.48935 0 0 0 -5.48294-5.48297zm3.48309 7.17224h-10.88287v-5.17242h7.39978a3.48684 3.48684 0 0 1 3.48309 3.48315z"/><path d="m34.0672 35.13876a13.76274 13.76274 0 0 0 -12.91882 6.88916l-.44825.78894a1.00726 1.00726 0 0 0 .86957 1.494l12.4975.00006a.99972.99972 0 0 0 .99994-.99994v-7.17228a.99967.99967 0 0 0 -.99994-.99994zm-.99988 7.17224h-9.74872a11.56292 11.56292 0 0 1 9.62812-5.17242h.1206z"/><path d="m56.98 40.96548h-.78a9.61585 9.61585 0 0 0 -9.6-9.41h-15.05a15.80125 15.80125 0 0 0 -13.73 8.01l-1.55 2.75h-7.01a5.26642 5.26642 0 0 0 -5.26 5.26v5.49a1.99947 1.99947 0 0 0 2 2h1.23a5.924 5.924 0 0 0 11.68 0h22.39a5.93147 5.93147 0 0 0 11.68 0h2.23a.99655.99655 0 0 0 1-1v-3.03h.77a3.02375 3.02375 0 0 0 3.02-3.02v-4.03a3.02369 3.02369 0 0 0 -3.02-3.02zm-43.91 17.03a3.93018 3.93018 0 0 1 0-7.86 3.93018 3.93018 0 0 1 0 7.85997zm34.07 0a3.93018 3.93018 0 0 1 0-7.86 3.93018 3.93018 0 0 1 0 7.85997zm7.07-4.93h-1.23c-1.17-6.51-10.52-6.5-11.68 0h-22.39a5.924 5.924 0 0 0 -11.68 0h-1.23v-5.49a3.2606 3.2606 0 0 1 3.26-3.26h7.6a1.01293 1.01293 0 0 0 .87-.51l1.84-3.26a13.76837 13.76837 0 0 1 11.98-6.99h15.05a7.61163 7.61163 0 0 1 7.61 7.6zm3.79-5.05a1.02433 1.02433 0 0 1 -1.02 1.02h-.77v-6.07h.77a1.02428 1.02428 0 0 1 1.02 1.02z"/><path d="m47.14 52.56546a1.50017 1.50017 0 0 0 0 3 1.50017 1.50017 0 0 0 0-3z"/><path d="m13.07 52.56546a1.50017 1.50017 0 0 0 0 3 1.50017 1.50017 0 0 0 0-3z"/><path d="m16.5213 26.02816 2.67975 3.56977a1.003 1.003 0 0 0 1.59985 0l2.67981-3.56977c12.09949-4.1886 9.35144-21.77874-3.47992-22.02816-12.83331.25308-15.57843 17.83816-3.47949 22.02816zm3.4797-20.02832a9.28423 9.28423 0 0 1 2.59979 18.19849 1.02417 1.02417 0 0 0 -.52.36993l-2.07979 2.76984-2.07984-2.76984a1.024 1.024 0 0 0 -.51989-.36993 9.28423 9.28423 0 0 1 2.59973-18.19849z"/><path d="m18.56122 14.12686h.43988v5.78467h-.43994a1.0001 1.0001 0 0 0 .00006 1.99981h2.87958a.99963.99963 0 0 0 .99993-.99994c-.01776-.81195-.73248-1.07928-1.43981-.99981v-6.78467a.99967.99967 0 0 0 -.99992-.99992h-1.43984a1.00012 1.00012 0 0 0 .00006 1.99986z"/><path d="m19.76105 10.86941a1.48 1.48 0 0 0 -.00005-2.95972 1.48 1.48 0 0 0 .00005 2.95972z"/></svg>