<svg width="24" height="24" viewBox="0 0 24 24" fill="none" xmlns="http://www.w3.org/2000/svg">
<path fill-rule="evenodd" clip-rule="evenodd" d="M0 18.375C0 18.6734 0.118526 18.9595 0.329505 19.1705C0.540483 19.3815 0.826631 19.5 1.125 19.5C1.42337 19.5 1.70952 19.3815 1.9205 19.1705C2.13147 18.9595 2.25 18.6734 2.25 18.375V5.625C2.25 5.32663 2.13147 5.04048 1.9205 4.8295C1.70952 4.61853 1.42337 4.5 1.125 4.5C0.826631 4.5 0.540483 4.61853 0.329505 4.8295C0.118526 5.04048 0 5.32663 0 5.625L0 18.375ZM11.7615 6.33C11.9722 6.54094 12.0905 6.82687 12.0905 7.125C12.0905 7.42313 11.9722 7.70906 11.7615 7.92L8.8065 10.875H22.875C23.1734 10.875 23.4595 10.9935 23.6705 11.2045C23.8815 11.4155 24 11.7016 24 12C24 12.2984 23.8815 12.5845 23.6705 12.7955C23.4595 13.0065 23.1734 13.125 22.875 13.125H8.8065L11.7615 16.08C11.872 16.183 11.9607 16.3072 12.0222 16.4452C12.0837 16.5832 12.1167 16.7322 12.1194 16.8832C12.1221 17.0343 12.0943 17.1843 12.0377 17.3244C11.9811 17.4645 11.8969 17.5917 11.7901 17.6986C11.6832 17.8054 11.556 17.8896 11.4159 17.9462C11.2758 18.0028 11.1258 18.0306 10.9747 18.0279C10.8237 18.0252 10.6747 17.9922 10.5367 17.9307C10.3987 17.8692 10.2745 17.7805 10.1715 17.67L5.295 12.795L4.5 12L5.295 11.205L10.17 6.33C10.2745 6.22546 10.3985 6.14253 10.5351 6.08594C10.6716 6.02936 10.818 6.00024 10.9657 6.00024C11.1135 6.00024 11.2599 6.02936 11.3964 6.08594C11.533 6.14253 11.657 6.22546 11.7615 6.33Z" fill="#1F1F1F"/>
</svg>
