<svg width="47" height="61" viewBox="0 0 47 61" fill="none" xmlns="http://www.w3.org/2000/svg">
<path d="M43.7222 8.58333C44.3926 8.58333 45.0356 8.84965 45.5096 9.3237C45.9837 9.79775 46.25 10.4407 46.25 11.1111C46.25 11.7815 45.9837 12.4245 45.5096 12.8985C45.0356 13.3726 44.3926 13.6389 43.7222 13.6389H41.1944L41.1869 13.8184L38.8284 46.8589C38.7377 48.1344 38.1669 49.3281 37.2312 50.1996C36.2954 51.0711 35.0642 51.5556 33.7855 51.5556H13.2119C11.9332 51.5556 10.702 51.0711 9.76629 50.1996C8.83055 49.3281 8.25982 48.1344 8.16903 46.8589L5.81061 13.8209L5.80556 13.6389H3.27778C2.60737 13.6389 1.96442 13.3726 1.49037 12.8985C1.01632 12.4245 0.75 11.7815 0.75 11.1111C0.75 10.4407 1.01632 9.79775 1.49037 9.3237C1.96442 8.84965 2.60737 8.58333 3.27778 8.58333H43.7222ZM36.1313 13.6389H10.8687L13.2145 46.5H33.7855L36.1313 13.6389ZM28.5556 1C29.226 1 29.8689 1.26632 30.343 1.74037C30.817 2.21442 31.0833 2.85737 31.0833 3.52778C31.0833 4.19819 30.817 4.84114 30.343 5.31519C29.8689 5.78924 29.226 6.05556 28.5556 6.05556H18.4444C17.774 6.05556 17.1311 5.78924 16.657 5.31519C16.183 4.84114 15.9167 4.19819 15.9167 3.52778C15.9167 2.85737 16.183 2.21442 16.657 1.74037C17.1311 1.26632 17.774 1 18.4444 1H28.5556Z" fill="#EE0000" stroke="white" stroke-width="0.3"/>
</svg>
