<svg width="20" height="21" viewBox="0 0 20 21" fill="none" xmlns="http://www.w3.org/2000/svg">
<path d="M5.83333 10.4987C5.83333 10.9407 5.65774 11.3646 5.34518 11.6772C5.03262 11.9898 4.60869 12.1654 4.16667 12.1654C3.72464 12.1654 3.30072 11.9898 2.98816 11.6772C2.67559 11.3646 2.5 10.9407 2.5 10.4987C2.5 10.0567 2.67559 9.63275 2.98816 9.32019C3.30072 9.00763 3.72464 8.83203 4.16667 8.83203C4.60869 8.83203 5.03262 9.00763 5.34518 9.32019C5.65774 9.63275 5.83333 10.0567 5.83333 10.4987ZM11.6667 10.4987C11.6667 10.9407 11.4911 11.3646 11.1785 11.6772C10.866 11.9898 10.442 12.1654 10 12.1654C9.55797 12.1654 9.13405 11.9898 8.82149 11.6772C8.50893 11.3646 8.33333 10.9407 8.33333 10.4987C8.33333 10.0567 8.50893 9.63275 8.82149 9.32019C9.13405 9.00763 9.55797 8.83203 10 8.83203C10.442 8.83203 10.866 9.00763 11.1785 9.32019C11.4911 9.63275 11.6667 10.0567 11.6667 10.4987ZM17.5 10.4987C17.5 10.9407 17.3244 11.3646 17.0118 11.6772C16.6993 11.9898 16.2754 12.1654 15.8333 12.1654C15.3913 12.1654 14.9674 11.9898 14.6548 11.6772C14.3423 11.3646 14.1667 10.9407 14.1667 10.4987C14.1667 10.0567 14.3423 9.63275 14.6548 9.32019C14.9674 9.00763 15.3913 8.83203 15.8333 8.83203C16.2754 8.83203 16.6993 9.00763 17.0118 9.32019C17.3244 9.63275 17.5 10.0567 17.5 10.4987Z" fill="#1F1F1F"/>
</svg>
