<svg width="33" height="33" viewBox="0 0 33 33" fill="none" xmlns="http://www.w3.org/2000/svg">
<g clip-path="url(#clip0_435_5161)">
<path d="M1.43994 21.778C1.70094 21.778 1.96294 21.689 2.17794 21.507L9.68694 15.211L17.1969 21.507C17.6879 21.917 18.4139 21.852 18.8219 21.364C19.2299 20.876 19.1669 20.148 18.6789 19.739L10.4289 12.822C9.99994 12.463 9.37395 12.463 8.94594 12.822L0.695945 19.739C0.209945 20.148 0.144945 20.876 0.552945 21.364C0.781945 21.638 1.10794 21.778 1.43994 21.778Z" fill="#00888A"/>
<path d="M31.736 8.27148C30.215 11.0865 26.701 11.0875 27.925 14.9825C28.644 12.4855 30.212 12.5575 31.402 10.5755C31.509 12.5035 31.087 14.2615 29.383 15.7025C31.956 14.9985 33.811 11.8195 31.736 8.27148Z" fill="#00888A"/>
<path d="M22.4091 9.86622C20.5621 7.52422 21.6801 6.11022 20.6281 3.67522C22.4971 4.86622 23.8521 6.43722 24.0571 8.98822C25.1191 6.12122 23.4031 2.26422 18.7051 1.82422C20.3121 5.12522 17.9581 8.40122 22.4091 9.86622Z" fill="#00888A"/>
<path d="M19.047 17.7423C17.428 16.8993 16.774 15.5733 16.51 14.0153C17.818 15.3813 19.057 15.0413 20.082 16.9053C20.353 13.5733 17.549 14.2093 15.827 12.2373C14.812 15.4443 16.869 17.6463 19.047 17.7423Z" fill="#00888A"/>
<path d="M20.932 11.9357C19.522 11.6527 18.733 10.7907 18.194 9.66968C19.485 10.4187 20.348 9.88868 21.532 11.0757C21.011 8.49368 19.024 9.58868 17.29 8.47168C17.222 11.1237 19.262 12.3367 20.932 11.9357Z" fill="#00888A"/>
<path d="M24.07 29.8966C24.793 27.9506 26.296 22.8196 26.146 20.0226C26.127 19.6546 29.04 15.5216 30.148 13.6496V12.7956C28.794 14.6536 25.925 17.4116 25.861 16.9086C25.357 13.0896 24.273 9.20663 22.462 7.02363L21.585 6.97363C22.782 8.44063 23.445 10.5126 23.725 12.8326C23.755 13.0856 21.317 10.8876 20.114 10.8876V11.3396C21.432 11.3586 23.852 14.3186 23.86 14.5026C23.963 16.8316 23.739 19.3096 23.323 21.6186C23.268 21.9216 22.122 17.6636 18.557 16.4606L18.206 16.6596C21.468 18.2166 23.014 23.1506 22.96 23.3826C22.693 24.5386 21.172 28.0486 20.471 29.7536C18.858 29.7066 17.076 29.6796 15.189 29.6716V21.7776L9.688 17.1656L4.189 21.7776V29.9026C1.602 30.0476 0 30.2506 0 30.4726C0 30.9166 28.395 30.9166 28.395 30.4726C28.393 30.2486 26.73 30.0436 24.07 29.8966ZM10.264 22.1406H12.522V24.3976H10.264V22.1406ZM10.264 25.5496H12.522V27.8076H10.264V25.5496ZM6.853 22.1406H9.111V24.3976H6.853V22.1406ZM6.853 25.5496H9.111V27.8076H6.853V25.5496Z" fill="#00888A"/>
</g>
<defs>
<clipPath id="clip0_435_5161">
<rect width="32.629" height="32.629" fill="white"/>
</clipPath>
</defs>
</svg>
