<svg width="20" height="20" viewBox="0 0 20 20" fill="none" xmlns="http://www.w3.org/2000/svg">
<path d="M10 0.75H3.75C2.09315 0.75 0.75 2.09315 0.75 3.75V16.25C0.75 17.9069 2.09315 19.25 3.75 19.25H16.25C17.9069 19.25 19.25 17.9069 19.25 16.25V10" stroke="#666666" stroke-width="1.2" stroke-linecap="round"/>
<path d="M14.0858 1.41421C14.8668 0.633165 16.1332 0.633165 16.9142 1.41421L18.5052 3.0052C19.2863 3.78625 19.2863 5.05258 18.5052 5.83363L10.4527 13.8861C10.2873 14.0515 10.0691 14.1537 9.83614 14.1749L6.53041 14.4754C5.90848 14.532 5.38744 14.0109 5.44398 13.389L5.7445 10.0833C5.76568 9.85031 5.86787 9.63213 6.03329 9.46671L14.0858 1.41421Z" stroke="#666666" stroke-width="1.2"/>
<path d="M12.5 3.125L12.6358 3.46457C13.3473 5.24329 14.7567 6.65268 16.5354 7.36417L16.875 7.5" stroke="#666666" stroke-width="1.2" stroke-linecap="square"/>
</svg>
