<svg width="20" height="21" viewBox="0 0 20 21" fill="none" xmlns="http://www.w3.org/2000/svg">
<path d="M17.7778 3.91667C18.0356 3.91667 18.2829 4.0191 18.4652 4.20142C18.6476 4.38375 18.75 4.63104 18.75 4.88889C18.75 5.14674 18.6476 5.39403 18.4652 5.57635C18.2829 5.75868 18.0356 5.86111 17.7778 5.86111H16.8056L16.8026 5.93014L15.8956 18.6381C15.8606 19.1286 15.6411 19.5877 15.2812 19.9229C14.9213 20.2581 14.4478 20.4445 13.956 20.4444H6.04306C5.55125 20.4445 5.0777 20.2581 4.7178 19.9229C4.35791 19.5877 4.13839 19.1286 4.10347 18.6381L3.19639 5.93111L3.19444 5.86111H2.22222C1.96437 5.86111 1.71708 5.75868 1.53476 5.57635C1.35243 5.39403 1.25 5.14674 1.25 4.88889C1.25 4.63104 1.35243 4.38375 1.53476 4.20142C1.71708 4.0191 1.96437 3.91667 2.22222 3.91667H17.7778ZM14.8582 5.86111H5.14181L6.04403 18.5H13.956L14.8582 5.86111ZM11.9444 1C12.2023 1 12.4496 1.10243 12.6319 1.28476C12.8142 1.46708 12.9167 1.71437 12.9167 1.97222C12.9167 2.23007 12.8142 2.47736 12.6319 2.65969C12.4496 2.84201 12.2023 2.94444 11.9444 2.94444H8.05556C7.79771 2.94444 7.55042 2.84201 7.36809 2.65969C7.18576 2.47736 7.08333 2.23007 7.08333 1.97222C7.08333 1.71437 7.18576 1.46708 7.36809 1.28476C7.55042 1.10243 7.79771 1 8.05556 1H11.9444Z" fill="#666666" stroke="#F7F7F7" stroke-width="0.3"/>
</svg>
