<svg height="512" viewBox="0 0 64 64" width="512" xmlns="http://www.w3.org/2000/svg"><g id="expand_outline" fill="rgb(0,0,0)" data-name="expand outline"><path d="m16.16 22.81a2 2 0 0 1 2-2v-2a4.08 4.08 0 0 0 -4 4z"/><path d="m18.16 14.81a8 8 0 0 0 -8 8h2a6 6 0 0 1 6-6z"/><path d="m18.16 10.81a12 12 0 0 0 -12 12h2a10 10 0 0 1 10-10z"/><path d="m4.17 22.81a14 14 0 0 1 14-14v-2a16 16 0 0 0 -16 16z"/><path d="m58.21 34.77-.46-.12-1.9-6.36a10.33 10.33 0 0 0 -3.68-5.29c-.3.62-.6 1.23-.91 1.83a8.31 8.31 0 0 1 2.67 4.05l2.07 6.89a1 1 0 0 0 .71.68l1 .26a3.09 3.09 0 0 1 2.19 2.29h-1.9a1 1 0 0 0 -1 1v2a1 1 0 0 0 1 1h2v6h-2.08a7 7 0 0 0 -13.84 0h-24.16a7 7 0 0 0 -13.84 0h-2.08v-6h3a1 1 0 0 0 1-1v-2a1 1 0 0 0 -1-1h-2.69a3 3 0 0 1 2.46-1.78l9.31-.74a1 1 0 0 0 .81-.54l4.41-8.55a8 8 0 0 1 7.05-4.39h10.48c-.32-.66-.63-1.33-.92-2h-9.56a10 10 0 0 0 -8.83 5.47l-4.15 8.06-8.76.69a5.08 5.08 0 0 0 -4.55 4.47c0 .1-.06.67-.06.67v9.64a1 1 0 0 0 1 1h3.08a7 7 0 0 0 13.84 0h24.16a7 7 0 0 0 13.84 0h3.08a1 1 0 0 0 1-1v-10.23a5.13 5.13 0 0 0 -3.79-5zm-45.21 20.23a5 5 0 1 1 5-5 5 5 0 0 1 -5 5zm38 0a5 5 0 1 1 5-5 5 5 0 0 1 -5 5z"/><path d="m35 38a1 1 0 0 0 -1-1h-4a1 1 0 0 0 0 2h4a1 1 0 0 0 1-1z"/><path d="m49 36a1 1 0 0 0 0 2h4a1 1 0 0 0 0-2z"/><path d="m21 48h10a1 1 0 0 0 0-2h-10a1 1 0 0 0 0 2z"/><path d="m35 48h8a1 1 0 0 0 0-2h-8a1 1 0 0 0 0 2z"/><path d="m45.5 7a7.5 7.5 0 0 0 -7.5 7.5c0 1.49.93 4 2.1 6.5.31.67 4.24 8 4.54 8.51a1 1 0 0 0 1.72 0c.28-.47 3.8-7 4.09-7.57 1.37-2.84 2.55-5.77 2.55-7.44a7.5 7.5 0 0 0 -7.5-7.5zm0 10a3.5 3.5 0 1 1 3.5-3.5 3.5 3.5 0 0 1 -3.5 3.5z"/><circle cx="13" cy="50" r="4"/><circle cx="51" cy="50" r="4"/><path d="m36 24h-7.65a7 7 0 0 0 -6.16 3.85l-3.94 7.63a1 1 0 0 0 .05 1 1 1 0 0 0 .84.46h.05l16.81-.86z"/><path d="m54.39 33.89-1.39-4.73a7.23 7.23 0 0 0 -2.19-3.45c-1.1 2.08-2.14 3.87-2.71 4.83a3 3 0 0 1 -5.16 0c-.73-1.22-2.2-3.75-3.59-6.53h-1.35v11.99l15.48-.79a1 1 0 0 0 .91-1.29z"/></g></svg>