<svg width="93" height="178" viewBox="0 0 93 178" fill="none" xmlns="http://www.w3.org/2000/svg">
<path d="M84.5901 39.403C84.5901 20.757 83.5181 10.599 78.6751 5.756C73.8321 0.912997 54.5281 0 46.3581 0C38.1881 0 18.8851 0.912997 14.0411 5.756C9.19811 10.599 8.12611 19.814 8.12611 39.403C8.12611 66.234 4.86911 163.441 13.2121 170.184C21.5561 176.927 37.9631 177.197 46.3571 177.197C54.7521 177.197 71.1591 176.927 79.5021 170.184C87.8471 163.441 84.5901 66.234 84.5901 39.403Z" fill="#8E8C75"/>
<path d="M81.3041 43.6312C81.3041 25.5812 80.3251 18.9092 75.8981 14.4822C71.4711 10.0552 53.8261 8.24219 46.3581 8.24219C38.8901 8.24219 21.2461 10.0552 16.8191 14.4822C12.3921 18.9092 11.4131 23.5862 11.4131 43.6312C11.4131 47.8032 11.8971 54.0842 13.1601 60.2772C15.5221 65.5322 16.7911 74.2212 17.6741 82.6832C16.6651 84.0622 16.0711 86.7842 16.0711 89.6642C14.7361 93.5992 15.7331 101.911 16.0711 107.04C16.0901 107.321 16.0531 108.213 16.0711 108.493C16.0711 108.493 15.2741 126.207 16.0711 134.027C16.2641 135.919 16.7061 138.538 17.0421 139.125C17.3191 141.527 13.9961 151.551 14.3421 153.397C15.0361 157.1 14.9941 162.31 16.0621 163.173C23.6891 169.337 38.6861 169.584 46.3591 169.584C54.0321 169.584 69.0291 169.337 76.6561 163.173C77.7241 162.31 77.6821 157.1 78.3761 153.397C78.7221 151.552 75.3981 141.527 75.6761 139.125C76.1961 137.738 76.4551 135.919 76.6481 134.027C77.4461 126.208 76.6481 108.493 76.6481 108.493C76.6661 108.213 76.6291 107.321 76.6481 107.04C76.9861 101.91 77.9831 93.5982 76.6481 89.6642C76.6481 86.7842 76.0541 84.0622 75.0451 82.6832C75.9271 74.2212 77.1961 65.5322 79.5581 60.2772C80.8201 54.0842 81.3041 47.8032 81.3041 43.6312Z" fill="#AAAE8B"/>
<path d="M16.0705 107.04V88.8005L10.9845 62.0625C9.96947 71.6555 9.89346 90.2755 10.0885 107.04H16.0705Z" fill="#282F3A"/>
<path d="M10.1055 108.496C10.3275 126.031 10.8285 141.158 10.8285 141.158L16.0705 134.03V108.496H10.1055Z" fill="#282F3A"/>
<path d="M46.3572 50.4028C46.3572 50.4028 27.2642 50.1648 13.1582 60.2758L17.6712 82.6818C17.6712 82.6818 25.4332 76.2148 46.3562 76.2148C67.2792 76.2148 75.0412 82.6818 75.0412 82.6818L79.5542 60.2758C65.4502 50.1648 46.3572 50.4028 46.3572 50.4028Z" fill="#282F3A"/>
<path d="M76.6465 107.04V88.8005L81.7325 62.0625C82.7485 71.6555 82.8235 90.2755 82.6285 107.04H76.6465Z" fill="#3A454F"/>
<path d="M82.6105 108.496C82.3885 126.031 81.8875 141.158 81.8875 141.158L76.6455 134.03V108.496H82.6105Z" fill="#3A454F"/>
<path d="M75.6747 139.125C68.5597 141.027 24.1567 141.027 17.0417 139.125C17.0417 139.125 13.6907 147.761 14.3417 153.397C19.1587 156.26 29.3597 159.898 46.3587 159.898C63.3577 159.898 73.5587 156.26 78.3757 153.397C79.0257 147.762 75.6747 139.125 75.6747 139.125Z" fill="#282F3A"/>
<path d="M9.21266 67.0919L1.28866 68.9999C0.572661 69.1729 -0.10534 68.5669 0.0136598 67.8399C0.24366 66.4239 1.07966 64.3909 3.89866 63.6069C8.41266 62.3489 9.21266 67.0919 9.21266 67.0919Z" fill="#AAAE8B"/>
<path d="M83.5039 67.0919L91.4289 68.9999C92.1449 69.1729 92.8229 68.5669 92.7039 67.8399C92.4739 66.4239 91.6379 64.3909 88.8189 63.6069C84.3039 62.3489 83.5039 67.0919 83.5039 67.0919Z" fill="#AAAE8B"/>
<path d="M32.6333 8.89844C32.6333 8.89844 32.7043 9.43644 32.8293 10.3784C32.8913 10.8494 32.9673 11.4214 33.0543 12.0774C33.1503 12.7294 33.2503 13.4684 33.2483 14.3244C33.2673 15.1654 33.2873 16.0774 33.3083 17.0414C33.3663 18.0094 33.2533 19.0004 33.1923 20.0334C33.1053 21.0634 33.0883 22.1334 32.9373 23.2064C32.7773 24.2774 32.6153 25.3644 32.4533 26.4514C32.3303 27.5434 32.0113 28.6024 31.7903 29.6584C31.5373 30.7084 31.3343 31.7504 30.9783 32.7204C30.6573 33.6954 30.3483 34.6384 30.0543 35.5324C29.7543 36.4224 29.3493 37.2234 29.0413 37.9814C28.6963 38.7254 28.4643 39.4414 28.1123 40.0124C27.7763 40.5874 27.4823 41.0874 27.2413 41.5004C26.7613 42.3204 26.4863 42.7884 26.4863 42.7884C26.4863 42.7884 26.7093 42.2924 27.1003 41.4244C27.2943 40.9934 27.5303 40.4694 27.8003 39.8684C28.0883 39.2784 28.2733 38.5474 28.5503 37.7894C28.7943 37.0174 29.1283 36.2064 29.3533 35.3074C29.5713 34.4074 29.8023 33.4584 30.0403 32.4764C30.3193 31.5074 30.4143 30.4594 30.6103 29.4214C30.7683 28.3754 31.0233 27.3304 31.0823 26.2544C31.1813 25.1864 31.2793 24.1194 31.3773 23.0684C31.4653 22.0184 31.4223 20.9774 31.4513 19.9774C31.4543 18.9774 31.5113 18.0024 31.4033 17.1074C31.3353 16.2084 31.2703 15.3574 31.2103 14.5724C31.1903 13.7954 31.0623 13.0594 30.9403 12.4054C30.8283 11.7534 30.7303 11.1854 30.6503 10.7174C30.4893 9.78144 30.3973 9.24644 30.3973 9.24644L32.6333 8.89844Z" fill="#8E8C75"/>
<path d="M62.3157 9.24253C62.3157 9.24253 62.2237 9.77753 62.0627 10.7135C61.9827 11.1815 61.8847 11.7495 61.7727 12.4015C61.6507 13.0555 61.5227 13.7915 61.5027 14.5685C61.4427 15.3535 61.3777 16.2035 61.3097 17.1035C61.2017 17.9995 61.2587 18.9735 61.2617 19.9735C61.2907 20.9745 61.2477 22.0145 61.3357 23.0645C61.4327 24.1155 61.5317 25.1835 61.6307 26.2505C61.6897 27.3265 61.9447 28.3715 62.1027 29.4175C62.2987 30.4555 62.3947 31.5035 62.6727 32.4725C62.9107 33.4545 63.1407 34.4035 63.3597 35.3035C63.5847 36.2035 63.9187 37.0135 64.1627 37.7855C64.4397 38.5445 64.6247 39.2745 64.9127 39.8645C65.1827 40.4655 65.4187 40.9895 65.6127 41.4205C66.0037 42.2885 66.2267 42.7845 66.2267 42.7845C66.2267 42.7845 65.9527 42.3165 65.4717 41.4965C65.2297 41.0845 64.9367 40.5835 64.6007 40.0085C64.2487 39.4375 64.0167 38.7225 63.6717 37.9775C63.3637 37.2195 62.9587 36.4185 62.6587 35.5285C62.3647 34.6345 62.0547 33.6915 61.7347 32.7165C61.3797 31.7465 61.1767 30.7045 60.9237 29.6545C60.7027 28.5985 60.3837 27.5395 60.2607 26.4475C60.0987 25.3605 59.9367 24.2725 59.7767 23.2025C59.6267 22.1295 59.6087 21.0605 59.5217 20.0295C59.4607 18.9965 59.3477 18.0045 59.4057 17.0375C59.4267 16.0735 59.4477 15.1625 59.4657 14.3205C59.4647 13.4655 59.5647 12.7255 59.6597 12.0735C59.7467 11.4175 59.8217 10.8455 59.8847 10.3745C60.0087 9.43253 60.0807 8.89453 60.0807 8.89453L62.3157 9.24253Z" fill="#8E8C75"/>
<path d="M75.0434 82.6818L79.5564 60.2758C65.4504 50.1648 46.3574 50.4028 46.3574 50.4028V76.2148C67.2804 76.2148 75.0434 82.6818 75.0434 82.6818Z" fill="#3A454F"/>
<path d="M75.6744 139.125C75.4344 139.189 75.1744 139.246 74.9014 139.298C74.8284 139.312 74.7354 139.325 74.6584 139.338C74.4974 139.365 74.3414 139.395 74.1704 139.419C69.2874 140.174 57.8324 140.552 46.3574 140.552V159.898C63.3564 159.898 73.5574 156.26 78.3744 153.397C79.0254 147.762 75.6744 139.125 75.6744 139.125Z" fill="#3A454F"/>
<path d="M55.6503 3.155L56.9314 0.536999C56.9544 0.489999 56.9624 0.440997 56.9794 0.393997C52.8494 0.0969972 49.0134 0 46.3574 0C43.7014 0 39.8664 0.0979972 35.7354 0.393997C35.7524 0.441997 35.7603 0.489999 35.7833 0.536999L37.0643 3.155C37.2953 3.627 37.7754 3.927 38.3014 3.927H54.4124C54.9394 3.927 55.4193 3.627 55.6503 3.155Z" fill="#282F3A"/>
<path d="M13.5834 14.0258C13.4784 14.0258 13.3714 14.0138 13.2654 13.9888C12.5284 13.8138 12.0724 13.0748 12.2474 12.3378C13.3814 7.55977 17.0704 4.84277 23.8584 3.78477C24.5994 3.67377 25.3073 4.18077 25.4243 4.92977C25.5413 5.67777 25.0284 6.37877 24.2794 6.49577C17.0764 7.61877 15.4914 10.5458 14.9164 12.9718C14.7664 13.6018 14.2044 14.0258 13.5834 14.0258Z" fill="#BDD6DB"/>
<path d="M13.5854 9.13281C12.9744 10.0758 12.5304 11.1418 12.2474 12.3358C12.0724 13.0728 12.5284 13.8128 13.2654 13.9868C13.3714 14.0118 13.4784 14.0238 13.5834 14.0238C14.2044 14.0238 14.7664 13.5998 14.9164 12.9688C15.1044 12.1758 15.4064 11.3288 15.9714 10.5078C15.2864 9.68681 14.4254 9.29381 13.5854 9.13281Z" fill="#EC9100"/>
<path d="M79.132 14.0258C79.237 14.0258 79.344 14.0138 79.45 13.9888C80.187 13.8138 80.643 13.0748 80.468 12.3378C79.334 7.55977 75.645 4.84277 68.857 3.78477C68.116 3.67377 67.408 4.18077 67.291 4.92977C67.174 5.67777 67.687 6.37877 68.436 6.49577C75.639 7.61877 77.224 10.5458 77.799 12.9718C77.949 13.6018 78.511 14.0258 79.132 14.0258Z" fill="#BDD6DB"/>
<path d="M79.1301 9.13281C79.7411 10.0758 80.1851 11.1418 80.4681 12.3358C80.6431 13.0728 80.1871 13.8128 79.4501 13.9868C79.3441 14.0118 79.2371 14.0238 79.1321 14.0238C78.5111 14.0238 77.9491 13.5998 77.7991 12.9688C77.6111 12.1758 77.3091 11.3288 76.7441 10.5078C77.4291 9.68681 78.2901 9.29381 79.1301 9.13281Z" fill="#EC9100"/>
<path d="M46.3578 176.305C50.1518 176.305 55.5828 176.243 61.1648 175.561C61.0598 175.011 60.9548 174.461 60.8498 173.91C60.6288 172.754 59.5368 171.89 58.4018 171.948C50.3778 172.362 42.3378 172.362 34.3138 171.948C33.1788 171.89 32.0868 172.754 31.8658 173.91C31.7618 174.46 31.6568 175.011 31.5508 175.561C37.1338 176.243 42.5648 176.305 46.3578 176.305Z" fill="#AAAE8B"/>
<path d="M27.0041 174.963C27.0061 174.953 27.0081 174.944 27.0101 174.934C27.1821 174.153 26.6931 173.389 25.9141 173.204C23.5971 172.655 21.2971 172.011 19.0201 171.272C18.2591 171.025 17.4431 171.424 17.1841 172.18C17.1811 172.189 17.1771 172.199 17.1741 172.208C17.1271 172.345 17.1261 172.483 17.1201 172.621C19.9501 174.017 23.2161 174.987 26.5951 175.661C26.7851 175.47 26.9421 175.245 27.0041 174.963Z" fill="#DD3E3E"/>
<path d="M75.5332 172.18C75.2742 171.423 74.4582 171.025 73.6972 171.272C71.4192 172.011 69.1202 172.655 66.8032 173.204C66.0252 173.389 65.5352 174.153 65.7072 174.934C65.7092 174.944 65.7112 174.953 65.7132 174.963C65.7752 175.244 65.9322 175.47 66.1212 175.662C69.5012 174.989 72.7662 174.018 75.5962 172.622C75.5902 172.484 75.5892 172.346 75.5422 172.209C75.5402 172.199 75.5362 172.189 75.5332 172.18Z" fill="#DD3E3E"/>
<path d="M7.58018 103.81H7.56718C7.20318 103.81 6.90918 103.515 6.90918 103.152V99.2322C6.90918 98.8682 7.20418 98.5742 7.56718 98.5742H7.58018C7.94418 98.5742 8.23818 98.8692 8.23818 99.2322V103.152C8.23818 103.516 7.94318 103.81 7.58018 103.81Z" fill="#282F3A"/>
<path d="M7.58018 118.384H7.56718C7.20318 118.384 6.90918 118.089 6.90918 117.726V113.806C6.90918 113.443 7.20418 113.148 7.56718 113.148H7.58018C7.94418 113.148 8.23818 113.443 8.23818 113.806V117.726C8.23818 118.089 7.94318 118.384 7.58018 118.384Z" fill="#282F3A"/>
<path d="M85.1495 103.81H85.1365C84.7735 103.81 84.4785 103.515 84.4785 103.152V99.2322C84.4785 98.8682 84.7735 98.5742 85.1365 98.5742H85.1495C85.5135 98.5742 85.8075 98.8692 85.8075 99.2322V103.152C85.8075 103.516 85.5125 103.81 85.1495 103.81Z" fill="#282F3A"/>
<path d="M85.1495 118.384H85.1365C84.7735 118.384 84.4785 118.089 84.4785 117.726V113.806C84.4785 113.443 84.7735 113.148 85.1365 113.148H85.1495C85.5135 113.148 85.8075 113.443 85.8075 113.806V117.726C85.8075 118.089 85.5125 118.384 85.1495 118.384Z" fill="#282F3A"/>
</svg>
